/* XPM */
static char *xhotkeys[] = {
/* columns rows colors chars-per-pixel */
"32 32 221 2",
"   c black",
".  c #010301",
"X  c #0A130A",
"o  c #0B140B",
"O  c #0F1A0F",
"+  c #101C10",
"@  c #111F11",
"#  c #0B230B",
"$  c #142414",
"%  c #152415",
"&  c #152515",
"*  c #152615",
"=  c #172817",
"-  c #182A18",
";  c #192C19",
":  c #1A2E1A",
">  c #1A2F1A",
",  c #1B2F1B",
"<  c #1B301B",
"1  c #1C311C",
"2  c #1D331D",
"3  c #1E341E",
"4  c #1E351E",
"5  c #1F361F",
"6  c #1F371F",
"7  c #203820",
"8  c #203920",
"9  c #213A21",
"0  c #223B22",
"q  c #223C22",
"w  c #233D23",
"e  c #233E23",
"r  c #243F24",
"t  c #244024",
"y  c #254025",
"u  c #254125",
"i  c #264226",
"p  c #264326",
"a  c #274527",
"s  c #284528",
"d  c #284628",
"f  c #294829",
"g  c #294929",
"h  c #2A492A",
"j  c #2A4A2A",
"k  c #2B4B2B",
"l  c #2B4C2B",
"z  c #2C4D2C",
"x  c #2D4F2D",
"c  c #2E502E",
"v  c #2E512E",
"b  c #2F512F",
"n  c #2F522F",
"m  c #2F532F",
"M  c #305430",
"N  c #305530",
"B  c #315631",
"V  c #325732",
"C  c #325932",
"Z  c #335833",
"A  c #335933",
"S  c #335A33",
"D  c #345A34",
"F  c #345B34",
"G  c #345C34",
"H  c #355C35",
"J  c #355D35",
"K  c #365E36",
"L  c #365F36",
"P  c #375F37",
"I  c #376037",
"U  c #386138",
"Y  c #396339",
"T  c #396439",
"R  c #3A653A",
"E  c #3A663A",
"W  c #3B663B",
"Q  c #3B673B",
"!  c #3B683B",
"~  c #3C693C",
"^  c #3C6A3C",
"/  c #3D6A3D",
"(  c #3D6B3D",
")  c #3E6B3E",
"_  c #3E6C3E",
"`  c #3E6D3E",
"'  c #3F6D3F",
"]  c #3F6E3F",
"[  c #3F6F3F",
"{  c #407040",
"}  c #417141",
"|  c #417241",
" . c #427342",
".. c #427442",
"X. c #437443",
"o. c #437543",
"O. c #437643",
"+. c #447544",
"@. c #447744",
"#. c #447844",
"$. c #457845",
"%. c #457945",
"&. c #467A46",
"*. c #467B46",
"=. c #477B47",
"-. c #477C47",
";. c #487D48",
":. c #487E48",
">. c #487F48",
",. c #497F49",
"<. c #4E7A4E",
"1. c #498049",
"2. c #4A814A",
"3. c #4B824B",
"4. c #4B834B",
"5. c #4C844C",
"6. c #4C854C",
"7. c #4D864D",
"8. c #4D874D",
"9. c #4E874E",
"0. c #4D884D",
"q. c #4E884E",
"w. c #4F8A4F",
"e. c #508A50",
"r. c #508B50",
"t. c #508C50",
"y. c #508D50",
"u. c #518D51",
"i. c #518E51",
"p. c #528F52",
"a. c #529052",
"s. c #539053",
"d. c #539153",
"f. c #539753",
"g. c #549254",
"h. c #549354",
"j. c #559355",
"k. c #559455",
"l. c #569556",
"z. c #569656",
"x. c #569756",
"c. c #579757",
"v. c #579857",
"b. c #579957",
"n. c #589958",
"m. c #589A58",
"M. c #599A59",
"N. c #599B59",
"B. c #5A9C5A",
"V. c #5A9D5A",
"C. c #5B9F5B",
"Z. c #5C9E5C",
"A. c #5C9F5C",
"S. c #5CA15C",
"D. c #5DA15D",
"F. c #5CA25C",
"G. c #5DA25D",
"H. c #5EA25E",
"J. c #5EA45E",
"K. c #5FA65F",
"L. c #60A660",
"P. c #60A760",
"I. c #60A860",
"U. c #61A861",
"Y. c #61A961",
"T. c #62AA62",
"R. c #62AC62",
"E. c #63AC63",
"W. c #63AE63",
"Q. c #64AE64",
"!. c #64AF64",
"~. c #65AF65",
"^. c #65B065",
"/. c #66B166",
"(. c #66B266",
"). c #67B367",
"_. c #67B467",
"`. c #68B468",
"'. c #68B568",
"]. c #68B668",
"[. c #69B669",
"{. c #69B769",
"}. c #6AB86A",
"|. c #6AB96A",
" X c #6BB96B",
".X c #6CBB6C",
"XX c #6CBC6C",
"oX c #6DBD6D",
"OX c #6DBE6D",
"+X c #6EBF6E",
"@X c #6EC06E",
"#X c #6FC26F",
"$X c #70C270",
"%X c #70C470",
"&X c #71C571",
"*X c #72C772",
"=X c #73C773",
"-X c #73C873",
";X c #74CA74",
":X c #74CB74",
">X c #75CB75",
",X c #76CC76",
"<X c #76CD76",
"1X c #77CF77",
"2X c #78D178",
"3X c #7AD37A",
"4X c #7AD47A",
"5X c #7BD67B",
"6X c #7BD77B",
"7X c #7DDA7D",
"8X c #82E382",
"9X c #85E685",
"0X c #85E785",
"qX c #8CF68C",
"wX c #90FD90",
"eX c #91FC91",
"rX c #AEFFAE",
"tX c #B0FFB0",
"yX c #B7FFB7",
"uX c gray100",
"iX c None",
/* pixels */
"iXiXiXiXiXiXiXiXiXiXiXiXiXiXiXiXiXiXiXiXiXiXiX.Xn.F.iXiXE.{ u.P.",
"iXiXiXiXiXiXiXiXiXiXiXiXiXiXiXiXiXiXiXiXa.S r 9 R }._.C r S e.P.",
"iXiXiXiXiXiXiXiXiXiXiXiXiXiXiXiXiXiXiX@.u * + k j.V.J 6 v 2.P.iX",
"iXiXiXiXiXiXiXiXiXiXiXiXiXiXiXiXiXiXJ 9 O * R l.;.r 2 S j.+XiXiX",
"iXiXiXiXiXiXiXiXiXiXiXiXiXiXiXiXiXV ; + u 2.a.J ; q ` J.iXiXiXiX",
"iXiXiXiXiXiXiXiXiXiXiXiXiXiXiX+Xk ; $ J a.%.9 - v ;.8XiXiXiXiXiX",
"iXiXiXiXiXiXiXiXiXiXiXiXiXiXu.a ; q %.u.S * 6 J Z.tXn.c.iXiXiXiX",
"iXiXiXiXiXiXiXiXiXiXiXiXiXR r 2 C u.%.6 X 2 v k 6 6 l ;.iXiXiXiX",
"iXiXiXiXiXiXiXiXiXiXiXiXJ 2 9 ` w.C $ o O 2 a v * + J n.iXiXiXiX",
"iXiXiXiXiXiXiXiXiXiXiXV u v 7.u.C u k Y w.J.F.I 6 R n.XXiXiXiXiX",
"iXiXiXiXiXiXiXiXiX#XY V ..V.F.u.4.u.u.l.P.V.V 6 ~ J.uXiXiXiXiXiX",
"iXiXiXiXiXiXiXiX{ k u S { { ~ R ` V 2 V 4.l u @.E.iXiXiXiXiXiXiX",
"iXiXiXiXiXiXiXJ.` q u C ` ;.u.n.2.q v ` q k %.+XiXiXiXiXiXiXiXiX",
"iXiXiXiXiXiXiX/.c.a.n.J.E._.XX~ 6 C ` q x 7.&XiXiXiXiXiXiXiXiXiX",
"iXiXiXiXiXiX5X&XXX_.}.&XeX<.d 9 I R 6 S a.yXiXiXiXiXiXiXiXiXiXiX",
"iXiXiXiXiXiX=X1X5XiXiXiX@.k 9 R J q R V.iXiXiXiXiXiXiXiXiXiXiXiX",
"iXiXiXiXiXiXiXiXiXiXiX{ u d ` x t ..F.iXiXiXiXiXiXiXiXiXiXiXiXiX",
"iXiXiXiXiXiXiXiXiXiXJ u k ` x a %./.iXiXiXiXiXiXiXiXiXiXiXiXiXiX",
"iXiXiXiXiXiXiXiXiXJ q m ` u x w./.iXiXiXiXiXiXiXiXiXiXiXiXiXiXiX",
"iXiXiXiXiXiXiX#Xx q C { ; q @.2.2.iXiXiXiXiXiXiXiXiXiXiXiXiXiXiX",
"iXiXiXiXiXiXa.x 9 R a.I u 9 - x 7.iXiXiXiXiXiXiXiXiXiXiXiXiXiXiX",
"iXiXiXiXiX{ u ; V ;.V.V.2.d r J u.iXiXiXiXiXiXiXiXiXiXiXiXiXiXiX",
"iXiXiXiX` a < 6 6 x u.%.v I 4.uXiXiXiXiXiXiXiXiXiXiXiXiXiXiXiXiX",
"iXiXiX_.u.` ;.~ v ;.~ Y ;.K.iXiXiXiXiXiXiXiXiXiXiXiXiXiXiXiXiXiX",
"iXiXiX}.!.).u.{ -.{ -.c.6XiXiXiXiXiXiXiXiXiXiXiXiXiXiXiXiXiXiXiX",
"iXiXiXiXiX-.-.2.;.a.P.rXiXiXiXiXiXiXiXiXiXiXiXiXiXiXiXiXiXiXiXiX",
"iXiXiXiX%.;.u.l.V./.iXiXiXiXiXiXiXiXiXiXiXiXiXiXiXiXiXiXiXiXiXiX",
"iXiXiX;.w.F.J.J..XiXiXiXiXiXiXiXiXiXiXiXiXiXiXiXiXiXiXiXiXiXiXiX",
"iXiXP.V.P./.E.iXiXiXiXiXiXiXiXiXiXiXiXiXiXiXiXiXiXiXiXiXiXiXiXiX",
"iX*X}.).}._.iXiXiXiXiXiXiXiXiXiXiXiXiXiXiXiXiXiXiXiXiXiXiXiXiXiX",
"1X*X&XE.iXiXiXiXiXiXiXiXiXiXiXiXiXiXiXiXiXiXiXiXiXiXiXiXiXiXiXiX",
",X,X*XiXiXiXiXiXiXiXiXiXiXiXiXiXiXiXiXiXiXiXiXiXiXiXiXiXiXiXiXiX"
};
